<?xml version="1.0" standalone="no"?>
<!DOCTYPE svg PUBLIC "-//W3C//DTD SVG 20010904//EN"
 "http://www.w3.org/TR/2001/REC-SVG-20010904/DTD/svg10.dtd">
<svg version="1.0" xmlns="http://www.w3.org/2000/svg"
 width="24.000000pt" height="24.000000pt" viewBox="0 0 24.000000 24.000000"
 preserveAspectRatio="xMidYMid meet" fill="currentColor">

<g transform="translate(0.000000,24.000000) scale(0.100000,-0.100000)"
stroke="none">
<path d="M91 196 c-13 -14 -33 -26 -45 -28 -18 -3 -21 -10 -21 -48 0 -38 3
-45 21 -48 12 -2 32 -14 45 -28 12 -13 26 -24 31 -24 4 0 8 45 8 100 0 55 -4
100 -8 100 -5 0 -19 -11 -31 -24z"/>
<path d="M184 168 c9 -12 16 -34 16 -48 0 -14 -7 -36 -16 -48 -12 -18 -13 -22
-1 -22 15 0 37 41 37 70 0 29 -22 70 -37 70 -12 0 -11 -4 1 -22z"/>
<path d="M155 120 c0 -22 3 -40 7 -40 11 0 20 39 13 60 -10 33 -20 23 -20 -20z"/>
</g>
</svg>
